v 10 1 0
v 0 1 0
v -1 1 0
v 10 0 0
v 10 1 -1
v 10 0 -1
v -1 1 -1
v -1 0 -1
v 0 1 10
v 0 0 10
v -1 1 10
v -1 0 10
v 0 1 0
v 0 0 0
v -1 1 -1
v -1 0 -1
v 10 1 0
v 0 0 0
v -1 1 5
v -1 1 10
v 0 1 0
v -1 1 0
vn 0 1 0
vn 0 0 -1
vn 0 0 1
vn -1 0 0
vn 1 0 0
f 5//1 3//1 1//1
f 7//2 6//2 8//2
f 17//3 18//3 4//3
f 5//1 7//1 3//1
f 7//2 5//2 6//2
f 17//3 2//3 18//3
f 19//4 15//4 16//4
f 14//5 21//5 10//5
f 21//1 20//1 9//1
f 16//4 12//4 19//4
f 12//4 11//4 19//4
f 14//3 13//3 21//3
f 21//5 9//5 10//5
f 21//1 22//1 20//1
